<svg width="286" height="196" viewBox="0 0 286 196" fill="none" xmlns="http://www.w3.org/2000/svg">
<path d="M7.71429 11C7.71429 12.4163 6.55915 13.5714 5.14286 13.5714C3.72656 13.5714 2.57143 12.4163 2.57143 11C2.57143 9.5837 3.72656 8.42857 5.14286 8.42857C6.55915 8.42857 7.71429 9.5837 7.71429 11ZM10.2857 11C10.2857 8.15737 7.98549 5.85714 5.14286 5.85714C2.30022 5.85714 0 8.15737 0 11C0 11.6127 0.0703125 12.2455 0.331473 12.798L3.99777 20.5725C4.19866 21.0145 4.66071 21.2857 5.14286 21.2857C5.625 21.2857 6.08705 21.0145 6.29799 20.5725L9.95424 12.798C10.2154 12.2455 10.2857 11.6127 10.2857 11ZM14.1429 73.0268C14.1429 72.9565 14.1429 72.8862 14.1127 72.8158C14.0424 72.6049 13.5502 72.3839 13.3493 72.2835C12.7768 71.9621 12.1942 71.6507 11.6317 71.3192C11.3705 71.1585 11.0491 70.8571 10.7377 70.8571C10.125 70.8571 9.23103 72.6752 8.68862 72.6752C8.41741 72.6752 8.06585 72.4241 7.82478 72.2835C5.99665 71.269 4.73103 70.0033 3.71652 68.1752C3.57589 67.9342 3.32478 67.5826 3.32478 67.3114C3.32478 66.769 5.14286 65.875 5.14286 65.2623C5.14286 64.9509 4.84152 64.6295 4.6808 64.3683C4.34933 63.8058 4.03795 63.2232 3.71652 62.6507C3.61607 62.4498 3.39509 61.9576 3.18415 61.8873C3.11384 61.8571 3.04353 61.8571 2.97321 61.8571C2.61161 61.8571 1.90848 62.0179 1.57701 62.1685C1.08482 62.3795 0.763393 62.942 0.512277 63.394C0.190848 63.9866 0 64.5893 0 65.2623C0 66.1964 0.381696 67.0402 0.69308 67.894C0.914063 68.5067 1.18527 69.0993 1.52679 69.6518C2.58147 71.3594 4.64062 73.4185 6.34821 74.4732C6.90067 74.8147 7.4933 75.0859 8.10603 75.3069C8.95982 75.6183 9.80357 76 10.7377 76C11.4107 76 12.0134 75.8092 12.606 75.4877C13.058 75.2366 13.6205 74.9152 13.8315 74.423C13.9821 74.0915 14.1429 73.3884 14.1429 73.0268ZM10.2757 126.214L9.32143 128.143H6.10714L5.1529 126.214H1.97879C1.99888 126.164 2.00893 126.104 2.02902 126.054L4.15848 121.071H11.2701L13.3996 126.054C13.4196 126.104 13.4297 126.164 13.4498 126.214H10.2757ZM15.4286 126.516C15.4286 126.154 15.3181 125.622 15.1775 125.28L12.7868 119.735C12.6462 119.404 12.2444 119.143 11.8929 119.143H3.53571C3.18415 119.143 2.78237 119.404 2.64174 119.735L0.251116 125.28C0.110491 125.622 0 126.154 0 126.516V131.357C0 131.709 0.291295 132 0.642857 132H14.7857C15.1373 132 15.4286 131.709 15.4286 131.357V126.516ZM9 178.036C9 177.855 8.85938 177.714 8.67857 177.714H8.03571C7.85491 177.714 7.71429 177.855 7.71429 178.036V181.571H5.46429C5.28348 181.571 5.14286 181.712 5.14286 181.893V182.536C5.14286 182.717 5.28348 182.857 5.46429 182.857H8.67857C8.85938 182.857 9 182.717 9 182.536V178.036ZM13.1786 181.571C13.1786 184.585 10.7277 187.036 7.71429 187.036C4.70089 187.036 2.25 184.585 2.25 181.571C2.25 178.558 4.70089 176.107 7.71429 176.107C10.7277 176.107 13.1786 178.558 13.1786 181.571ZM15.4286 181.571C15.4286 177.312 11.9732 173.857 7.71429 173.857C3.45536 173.857 0 177.312 0 181.571C0 185.83 3.45536 189.286 7.71429 189.286C11.9732 189.286 15.4286 185.83 15.4286 181.571Z" fill="#7E5AFF"/>
<path d="M24.5651 7.292C26.2331 7.292 27.5111 7.844 28.3991 8.948C29.2871 10.04 29.7311 11.588 29.7311 13.592C29.7311 14.996 29.4911 16.184 29.0111 17.156C28.5311 18.128 27.8591 18.866 26.9951 19.37C26.1311 19.862 25.1231 20.108 23.9711 20.108C22.7231 20.108 21.7271 19.88 20.9831 19.424L21.5051 18.38C22.1051 18.776 22.9211 18.974 23.9531 18.974C25.3451 18.974 26.4371 18.536 27.2291 17.66C28.0211 16.772 28.4171 15.488 28.4171 13.808C28.4171 13.496 28.3991 13.154 28.3631 12.782C28.0511 13.466 27.5531 14 26.8691 14.384C26.1851 14.756 25.3991 14.942 24.5111 14.942C23.6831 14.942 22.9451 14.786 22.2971 14.474C21.6611 14.162 21.1631 13.724 20.8031 13.16C20.4431 12.584 20.2631 11.918 20.2631 11.162C20.2631 10.394 20.4491 9.716 20.8211 9.128C21.1931 8.54 21.7031 8.09 22.3511 7.778C23.0111 7.454 23.7491 7.292 24.5651 7.292ZM24.7091 13.844C25.3451 13.844 25.9031 13.724 26.3831 13.484C26.8751 13.244 27.2591 12.914 27.5351 12.494C27.8111 12.074 27.9491 11.606 27.9491 11.09C27.9491 10.61 27.8171 10.166 27.5531 9.758C27.3011 9.35 26.9231 9.02 26.4191 8.768C25.9151 8.516 25.3151 8.39 24.6191 8.39C23.7071 8.39 22.9631 8.642 22.3871 9.146C21.8231 9.638 21.5411 10.298 21.5411 11.126C21.5411 11.954 21.8231 12.614 22.3871 13.106C22.9631 13.598 23.7371 13.844 24.7091 13.844ZM35.0667 7.4V20H33.7707V8.552H30.8007V7.4H35.0667ZM54.4355 7.4V20H53.3375L45.2375 9.776V20H43.9055V7.4H45.0035L53.1215 17.624V7.4H54.4355ZM62.1481 20.09C61.2361 20.09 60.4141 19.886 59.6821 19.478C58.9501 19.058 58.3741 18.482 57.9541 17.75C57.5341 17.018 57.3241 16.19 57.3241 15.266C57.3241 14.342 57.5341 13.514 57.9541 12.782C58.3741 12.05 58.9501 11.48 59.6821 11.072C60.4141 10.664 61.2361 10.46 62.1481 10.46C63.0601 10.46 63.8821 10.664 64.6141 11.072C65.3461 11.48 65.9161 12.05 66.3241 12.782C66.7441 13.514 66.9541 14.342 66.9541 15.266C66.9541 16.19 66.7441 17.018 66.3241 17.75C65.9161 18.482 65.3461 19.058 64.6141 19.478C63.8821 19.886 63.0601 20.09 62.1481 20.09ZM62.1481 18.956C62.8201 18.956 63.4201 18.806 63.9481 18.506C64.4881 18.194 64.9081 17.756 65.2081 17.192C65.5081 16.628 65.6581 15.986 65.6581 15.266C65.6581 14.546 65.5081 13.904 65.2081 13.34C64.9081 12.776 64.4881 12.344 63.9481 12.044C63.4201 11.732 62.8201 11.576 62.1481 11.576C61.4761 11.576 60.8701 11.732 60.3301 12.044C59.8021 12.344 59.3821 12.776 59.0701 13.34C58.7701 13.904 58.6201 14.546 58.6201 15.266C58.6201 15.986 58.7701 16.628 59.0701 17.192C59.3821 17.756 59.8021 18.194 60.3301 18.506C60.8701 18.806 61.4761 18.956 62.1481 18.956ZM69.5633 6.644H70.8413V20H69.5633V6.644ZM77.7092 10.46C78.9452 10.46 79.8932 10.772 80.5532 11.396C81.2132 12.008 81.5432 12.92 81.5432 14.132V20H80.3192V18.524C80.0312 19.016 79.6052 19.4 79.0412 19.676C78.4892 19.952 77.8292 20.09 77.0612 20.09C76.0052 20.09 75.1652 19.838 74.5412 19.334C73.9172 18.83 73.6052 18.164 73.6052 17.336C73.6052 16.532 73.8932 15.884 74.4692 15.392C75.0572 14.9 75.9872 14.654 77.2592 14.654H80.2652V14.078C80.2652 13.262 80.0372 12.644 79.5812 12.224C79.1252 11.792 78.4592 11.576 77.5832 11.576C76.9832 11.576 76.4072 11.678 75.8552 11.882C75.3032 12.074 74.8292 12.344 74.4332 12.692L73.8572 11.738C74.3372 11.33 74.9132 11.018 75.5852 10.802C76.2572 10.574 76.9652 10.46 77.7092 10.46ZM77.2592 19.082C77.9792 19.082 78.5972 18.92 79.1132 18.596C79.6292 18.26 80.0132 17.78 80.2652 17.156V15.608H77.2952C75.6752 15.608 74.8652 16.172 74.8652 17.3C74.8652 17.852 75.0752 18.29 75.4952 18.614C75.9152 18.926 76.5032 19.082 77.2592 19.082ZM89.8384 10.46C91.0264 10.46 91.9684 10.808 92.6644 11.504C93.3724 12.188 93.7264 13.19 93.7264 14.51V20H92.4484V14.636C92.4484 13.652 92.2024 12.902 91.7104 12.386C91.2184 11.87 90.5164 11.612 89.6044 11.612C88.5844 11.612 87.7744 11.918 87.1744 12.53C86.5864 13.13 86.2924 13.964 86.2924 15.032V20H85.0144V10.532H86.2384V12.278C86.5864 11.702 87.0664 11.258 87.6784 10.946C88.3024 10.622 89.0224 10.46 89.8384 10.46ZM111.087 18.848V20H102.177V7.4H110.817V8.552H103.509V13.034H110.025V14.168H103.509V18.848H111.087ZM119.714 20L116.708 16.04L113.684 20H112.244L115.988 15.14L112.424 10.532H113.864L116.708 14.24L119.552 10.532H120.956L117.392 15.14L121.172 20H119.714ZM128.286 19.424C128.046 19.64 127.746 19.808 127.386 19.928C127.038 20.036 126.672 20.09 126.288 20.09C125.4 20.09 124.716 19.85 124.236 19.37C123.756 18.89 123.516 18.212 123.516 17.336V11.612H121.824V10.532H123.516V8.462H124.794V10.532H127.674V11.612H124.794V17.264C124.794 17.828 124.932 18.26 125.208 18.56C125.496 18.848 125.904 18.992 126.432 18.992C126.696 18.992 126.948 18.95 127.188 18.866C127.44 18.782 127.656 18.662 127.836 18.506L128.286 19.424ZM138.522 15.662H130.602C130.674 16.646 131.052 17.444 131.736 18.056C132.42 18.656 133.284 18.956 134.328 18.956C134.916 18.956 135.456 18.854 135.948 18.65C136.44 18.434 136.866 18.122 137.226 17.714L137.946 18.542C137.526 19.046 136.998 19.43 136.362 19.694C135.738 19.958 135.048 20.09 134.292 20.09C133.32 20.09 132.456 19.886 131.7 19.478C130.956 19.058 130.374 18.482 129.954 17.75C129.534 17.018 129.324 16.19 129.324 15.266C129.324 14.342 129.522 13.514 129.918 12.782C130.326 12.05 130.878 11.48 131.574 11.072C132.282 10.664 133.074 10.46 133.95 10.46C134.826 10.46 135.612 10.664 136.308 11.072C137.004 11.48 137.55 12.05 137.946 12.782C138.342 13.502 138.54 14.33 138.54 15.266L138.522 15.662ZM133.95 11.558C133.038 11.558 132.27 11.852 131.646 12.44C131.034 13.016 130.686 13.772 130.602 14.708H137.316C137.232 13.772 136.878 13.016 136.254 12.44C135.642 11.852 134.874 11.558 133.95 11.558ZM145.965 10.46C147.153 10.46 148.095 10.808 148.791 11.504C149.499 12.188 149.853 13.19 149.853 14.51V20H148.575V14.636C148.575 13.652 148.329 12.902 147.837 12.386C147.345 11.87 146.643 11.612 145.731 11.612C144.711 11.612 143.901 11.918 143.301 12.53C142.713 13.13 142.419 13.964 142.419 15.032V20H141.141V10.532H142.365V12.278C142.713 11.702 143.193 11.258 143.805 10.946C144.429 10.622 145.149 10.46 145.965 10.46ZM155.861 20.09C155.093 20.09 154.355 19.982 153.647 19.766C152.951 19.538 152.405 19.256 152.009 18.92L152.585 17.912C152.981 18.224 153.479 18.482 154.079 18.686C154.679 18.878 155.303 18.974 155.951 18.974C156.815 18.974 157.451 18.842 157.859 18.578C158.279 18.302 158.489 17.918 158.489 17.426C158.489 17.078 158.375 16.808 158.147 16.616C157.919 16.412 157.631 16.262 157.283 16.166C156.935 16.058 156.473 15.956 155.897 15.86C155.129 15.716 154.511 15.572 154.043 15.428C153.575 15.272 153.173 15.014 152.837 14.654C152.513 14.294 152.351 13.796 152.351 13.16C152.351 12.368 152.681 11.72 153.341 11.216C154.001 10.712 154.919 10.46 156.095 10.46C156.707 10.46 157.319 10.544 157.931 10.712C158.543 10.868 159.047 11.078 159.443 11.342L158.885 12.368C158.105 11.828 157.175 11.558 156.095 11.558C155.279 11.558 154.661 11.702 154.241 11.99C153.833 12.278 153.629 12.656 153.629 13.124C153.629 13.484 153.743 13.772 153.971 13.988C154.211 14.204 154.505 14.366 154.853 14.474C155.201 14.57 155.681 14.672 156.293 14.78C157.049 14.924 157.655 15.068 158.111 15.212C158.567 15.356 158.957 15.602 159.281 15.95C159.605 16.298 159.767 16.778 159.767 17.39C159.767 18.218 159.419 18.878 158.723 19.37C158.039 19.85 157.085 20.09 155.861 20.09ZM162.13 10.532H163.408V20H162.13V10.532ZM162.778 8.462C162.514 8.462 162.292 8.372 162.112 8.192C161.932 8.012 161.842 7.796 161.842 7.544C161.842 7.304 161.932 7.094 162.112 6.914C162.292 6.734 162.514 6.644 162.778 6.644C163.042 6.644 163.264 6.734 163.444 6.914C163.624 7.082 163.714 7.286 163.714 7.526C163.714 7.79 163.624 8.012 163.444 8.192C163.264 8.372 163.042 8.462 162.778 8.462ZM170.834 20.09C169.922 20.09 169.1 19.886 168.368 19.478C167.636 19.058 167.06 18.482 166.64 17.75C166.22 17.018 166.01 16.19 166.01 15.266C166.01 14.342 166.22 13.514 166.64 12.782C167.06 12.05 167.636 11.48 168.368 11.072C169.1 10.664 169.922 10.46 170.834 10.46C171.746 10.46 172.568 10.664 173.3 11.072C174.032 11.48 174.602 12.05 175.01 12.782C175.43 13.514 175.64 14.342 175.64 15.266C175.64 16.19 175.43 17.018 175.01 17.75C174.602 18.482 174.032 19.058 173.3 19.478C172.568 19.886 171.746 20.09 170.834 20.09ZM170.834 18.956C171.506 18.956 172.106 18.806 172.634 18.506C173.174 18.194 173.594 17.756 173.894 17.192C174.194 16.628 174.344 15.986 174.344 15.266C174.344 14.546 174.194 13.904 173.894 13.34C173.594 12.776 173.174 12.344 172.634 12.044C172.106 11.732 171.506 11.576 170.834 11.576C170.162 11.576 169.556 11.732 169.016 12.044C168.488 12.344 168.068 12.776 167.756 13.34C167.456 13.904 167.306 14.546 167.306 15.266C167.306 15.986 167.456 16.628 167.756 17.192C168.068 17.756 168.488 18.194 169.016 18.506C169.556 18.806 170.162 18.956 170.834 18.956ZM183.073 10.46C184.261 10.46 185.203 10.808 185.899 11.504C186.607 12.188 186.961 13.19 186.961 14.51V20H185.683V14.636C185.683 13.652 185.437 12.902 184.945 12.386C184.453 11.87 183.751 11.612 182.839 11.612C181.819 11.612 181.009 11.918 180.409 12.53C179.821 13.13 179.527 13.964 179.527 15.032V20H178.249V10.532H179.473V12.278C179.821 11.702 180.301 11.258 180.913 10.946C181.537 10.622 182.257 10.46 183.073 10.46ZM192.968 20.09C192.2 20.09 191.462 19.982 190.754 19.766C190.058 19.538 189.512 19.256 189.116 18.92L189.692 17.912C190.088 18.224 190.586 18.482 191.186 18.686C191.786 18.878 192.41 18.974 193.058 18.974C193.922 18.974 194.558 18.842 194.966 18.578C195.386 18.302 195.596 17.918 195.596 17.426C195.596 17.078 195.482 16.808 195.254 16.616C195.026 16.412 194.738 16.262 194.39 16.166C194.042 16.058 193.58 15.956 193.004 15.86C192.236 15.716 191.618 15.572 191.15 15.428C190.682 15.272 190.28 15.014 189.944 14.654C189.62 14.294 189.458 13.796 189.458 13.16C189.458 12.368 189.788 11.72 190.448 11.216C191.108 10.712 192.026 10.46 193.202 10.46C193.814 10.46 194.426 10.544 195.038 10.712C195.65 10.868 196.154 11.078 196.55 11.342L195.992 12.368C195.212 11.828 194.282 11.558 193.202 11.558C192.386 11.558 191.768 11.702 191.348 11.99C190.94 12.278 190.736 12.656 190.736 13.124C190.736 13.484 190.85 13.772 191.078 13.988C191.318 14.204 191.612 14.366 191.96 14.474C192.308 14.57 192.788 14.672 193.4 14.78C194.156 14.924 194.762 15.068 195.218 15.212C195.674 15.356 196.064 15.602 196.388 15.95C196.712 16.298 196.874 16.778 196.874 17.39C196.874 18.218 196.526 18.878 195.83 19.37C195.146 19.85 194.192 20.09 192.968 20.09ZM207.692 20.108C206.756 20.108 205.856 19.958 204.992 19.658C204.14 19.358 203.48 18.962 203.012 18.47L203.534 17.444C203.99 17.9 204.596 18.272 205.352 18.56C206.108 18.836 206.888 18.974 207.692 18.974C208.82 18.974 209.666 18.77 210.23 18.362C210.794 17.942 211.076 17.402 211.076 16.742C211.076 16.238 210.92 15.836 210.608 15.536C210.308 15.236 209.936 15.008 209.492 14.852C209.048 14.684 208.43 14.504 207.638 14.312C206.69 14.072 205.934 13.844 205.37 13.628C204.806 13.4 204.32 13.058 203.912 12.602C203.516 12.146 203.318 11.528 203.318 10.748C203.318 10.112 203.486 9.536 203.822 9.02C204.158 8.492 204.674 8.072 205.37 7.76C206.066 7.448 206.93 7.292 207.962 7.292C208.682 7.292 209.384 7.394 210.068 7.598C210.764 7.79 211.364 8.06 211.868 8.408L211.418 9.47C210.89 9.122 210.326 8.864 209.726 8.696C209.126 8.516 208.538 8.426 207.962 8.426C206.858 8.426 206.024 8.642 205.46 9.074C204.908 9.494 204.632 10.04 204.632 10.712C204.632 11.216 204.782 11.624 205.082 11.936C205.394 12.236 205.778 12.47 206.234 12.638C206.702 12.794 207.326 12.968 208.106 13.16C209.03 13.388 209.774 13.616 210.338 13.844C210.914 14.06 211.4 14.396 211.796 14.852C212.192 15.296 212.39 15.902 212.39 16.67C212.39 17.306 212.216 17.888 211.868 18.416C211.532 18.932 211.01 19.346 210.302 19.658C209.594 19.958 208.724 20.108 207.692 20.108ZM223.554 10.532V20H222.33V18.272C221.994 18.848 221.532 19.298 220.944 19.622C220.356 19.934 219.684 20.09 218.928 20.09C217.692 20.09 216.714 19.748 215.994 19.064C215.286 18.368 214.932 17.354 214.932 16.022V10.532H216.21V15.896C216.21 16.892 216.456 17.648 216.948 18.164C217.44 18.68 218.142 18.938 219.054 18.938C220.05 18.938 220.836 18.638 221.412 18.038C221.988 17.426 222.276 16.58 222.276 15.5V10.532H223.554ZM227.134 10.532H228.412V20H227.134V10.532ZM227.782 8.462C227.518 8.462 227.296 8.372 227.116 8.192C226.936 8.012 226.846 7.796 226.846 7.544C226.846 7.304 226.936 7.094 227.116 6.914C227.296 6.734 227.518 6.644 227.782 6.644C228.046 6.644 228.268 6.734 228.448 6.914C228.628 7.082 228.718 7.286 228.718 7.526C228.718 7.79 228.628 8.012 228.448 8.192C228.268 8.372 228.046 8.462 227.782 8.462ZM236.954 19.424C236.714 19.64 236.414 19.808 236.054 19.928C235.706 20.036 235.34 20.09 234.956 20.09C234.068 20.09 233.384 19.85 232.904 19.37C232.424 18.89 232.184 18.212 232.184 17.336V11.612H230.492V10.532H232.184V8.462H233.462V10.532H236.342V11.612H233.462V17.264C233.462 17.828 233.6 18.26 233.876 18.56C234.164 18.848 234.572 18.992 235.1 18.992C235.364 18.992 235.616 18.95 235.856 18.866C236.108 18.782 236.324 18.662 236.504 18.506L236.954 19.424ZM247.19 15.662H239.27C239.342 16.646 239.72 17.444 240.404 18.056C241.088 18.656 241.952 18.956 242.996 18.956C243.584 18.956 244.124 18.854 244.616 18.65C245.108 18.434 245.534 18.122 245.894 17.714L246.614 18.542C246.194 19.046 245.666 19.43 245.03 19.694C244.406 19.958 243.716 20.09 242.96 20.09C241.988 20.09 241.124 19.886 240.368 19.478C239.624 19.058 239.042 18.482 238.622 17.75C238.202 17.018 237.992 16.19 237.992 15.266C237.992 14.342 238.19 13.514 238.586 12.782C238.994 12.05 239.546 11.48 240.242 11.072C240.95 10.664 241.742 10.46 242.618 10.46C243.494 10.46 244.28 10.664 244.976 11.072C245.672 11.48 246.218 12.05 246.614 12.782C247.01 13.502 247.208 14.33 247.208 15.266L247.19 15.662ZM242.618 11.558C241.706 11.558 240.938 11.852 240.314 12.44C239.702 13.016 239.354 13.772 239.27 14.708H245.984C245.9 13.772 245.546 13.016 244.922 12.44C244.31 11.852 243.542 11.558 242.618 11.558ZM258.894 12.458C259.722 12.458 260.454 12.614 261.09 12.926C261.738 13.238 262.242 13.682 262.602 14.258C262.962 14.822 263.142 15.482 263.142 16.238C263.142 17.006 262.956 17.684 262.584 18.272C262.212 18.86 261.696 19.316 261.036 19.64C260.388 19.952 259.656 20.108 258.84 20.108C257.172 20.108 255.894 19.562 255.006 18.47C254.118 17.366 253.674 15.812 253.674 13.808C253.674 12.404 253.914 11.216 254.394 10.244C254.874 9.272 255.546 8.54 256.41 8.048C257.274 7.544 258.282 7.292 259.434 7.292C260.682 7.292 261.678 7.52 262.422 7.976L261.9 9.02C261.3 8.624 260.484 8.426 259.452 8.426C258.06 8.426 256.968 8.87 256.176 9.758C255.384 10.634 254.988 11.912 254.988 13.592C254.988 13.892 255.006 14.234 255.042 14.618C255.354 13.934 255.852 13.406 256.536 13.034C257.22 12.65 258.006 12.458 258.894 12.458ZM258.786 19.01C259.698 19.01 260.436 18.764 261 18.272C261.576 17.768 261.864 17.102 261.864 16.274C261.864 15.446 261.576 14.786 261 14.294C260.436 13.802 259.668 13.556 258.696 13.556C258.06 13.556 257.496 13.676 257.004 13.916C256.524 14.156 256.146 14.486 255.87 14.906C255.594 15.326 255.456 15.794 255.456 16.31C255.456 16.79 255.582 17.234 255.834 17.642C256.098 18.05 256.482 18.38 256.986 18.632C257.49 18.884 258.09 19.01 258.786 19.01ZM273.394 7.4V8.318L268.12 20H266.716L271.9 8.552H265.42V10.91H264.142V7.4H273.394ZM279.772 20.108C278.8 20.108 277.93 19.85 277.162 19.334C276.406 18.818 275.812 18.08 275.38 17.12C274.96 16.148 274.75 15.008 274.75 13.7C274.75 12.392 274.96 11.258 275.38 10.298C275.812 9.326 276.406 8.582 277.162 8.066C277.93 7.55 278.8 7.292 279.772 7.292C280.744 7.292 281.608 7.55 282.364 8.066C283.132 8.582 283.732 9.326 284.164 10.298C284.596 11.258 284.812 12.392 284.812 13.7C284.812 15.008 284.596 16.148 284.164 17.12C283.732 18.08 283.132 18.818 282.364 19.334C281.608 19.85 280.744 20.108 279.772 20.108ZM279.772 18.92C280.504 18.92 281.146 18.716 281.698 18.308C282.262 17.9 282.7 17.306 283.012 16.526C283.324 15.746 283.48 14.804 283.48 13.7C283.48 12.596 283.324 11.654 283.012 10.874C282.7 10.094 282.262 9.5 281.698 9.092C281.146 8.684 280.504 8.48 279.772 8.48C279.04 8.48 278.392 8.684 277.828 9.092C277.276 9.5 276.844 10.094 276.532 10.874C276.22 11.654 276.064 12.596 276.064 13.7C276.064 14.804 276.22 15.746 276.532 16.526C276.844 17.306 277.276 17.9 277.828 18.308C278.392 18.716 279.04 18.92 279.772 18.92ZM32.6623 70.24H29.3143V73.516H28.1803V70.24H24.8323V69.178H28.1803V65.884H29.3143V69.178H32.6623V70.24ZM40.0244 76.108C39.0524 76.108 38.1824 75.85 37.4144 75.334C36.6584 74.818 36.0644 74.08 35.6324 73.12C35.2124 72.148 35.0024 71.008 35.0024 69.7C35.0024 68.392 35.2124 67.258 35.6324 66.298C36.0644 65.326 36.6584 64.582 37.4144 64.066C38.1824 63.55 39.0524 63.292 40.0244 63.292C40.9964 63.292 41.8604 63.55 42.6164 64.066C43.3844 64.582 43.9844 65.326 44.4164 66.298C44.8484 67.258 45.0644 68.392 45.0644 69.7C45.0644 71.008 44.8484 72.148 44.4164 73.12C43.9844 74.08 43.3844 74.818 42.6164 75.334C41.8604 75.85 40.9964 76.108 40.0244 76.108ZM40.0244 74.92C40.7564 74.92 41.3984 74.716 41.9504 74.308C42.5144 73.9 42.9524 73.306 43.2644 72.526C43.5764 71.746 43.7324 70.804 43.7324 69.7C43.7324 68.596 43.5764 67.654 43.2644 66.874C42.9524 66.094 42.5144 65.5 41.9504 65.092C41.3984 64.684 40.7564 64.48 40.0244 64.48C39.2924 64.48 38.6444 64.684 38.0804 65.092C37.5284 65.5 37.0964 66.094 36.7844 66.874C36.4724 67.654 36.3164 68.596 36.3164 69.7C36.3164 70.804 36.4724 71.746 36.7844 72.526C37.0964 73.306 37.5284 73.9 38.0804 74.308C38.6444 74.716 39.2924 74.92 40.0244 74.92ZM51.9424 76.108C50.9704 76.108 50.1004 75.85 49.3324 75.334C48.5764 74.818 47.9824 74.08 47.5504 73.12C47.1304 72.148 46.9204 71.008 46.9204 69.7C46.9204 68.392 47.1304 67.258 47.5504 66.298C47.9824 65.326 48.5764 64.582 49.3324 64.066C50.1004 63.55 50.9704 63.292 51.9424 63.292C52.9144 63.292 53.7784 63.55 54.5344 64.066C55.3024 64.582 55.9024 65.326 56.3344 66.298C56.7664 67.258 56.9824 68.392 56.9824 69.7C56.9824 71.008 56.7664 72.148 56.3344 73.12C55.9024 74.08 55.3024 74.818 54.5344 75.334C53.7784 75.85 52.9144 76.108 51.9424 76.108ZM51.9424 74.92C52.6744 74.92 53.3164 74.716 53.8684 74.308C54.4324 73.9 54.8704 73.306 55.1824 72.526C55.4944 71.746 55.6504 70.804 55.6504 69.7C55.6504 68.596 55.4944 67.654 55.1824 66.874C54.8704 66.094 54.4324 65.5 53.8684 65.092C53.3164 64.684 52.6744 64.48 51.9424 64.48C51.2104 64.48 50.5624 64.684 49.9984 65.092C49.4464 65.5 49.0144 66.094 48.7024 66.874C48.3904 67.654 48.2344 68.596 48.2344 69.7C48.2344 70.804 48.3904 71.746 48.7024 72.526C49.0144 73.306 49.4464 73.9 49.9984 74.308C50.5624 74.716 51.2104 74.92 51.9424 74.92ZM62.2952 63.4V76H60.9992V64.552H58.0292V63.4H62.2952ZM74.302 68.8C75.622 68.872 76.624 69.232 77.308 69.88C78.004 70.516 78.352 71.35 78.352 72.382C78.352 73.102 78.178 73.744 77.83 74.308C77.482 74.86 76.966 75.298 76.282 75.622C75.598 75.946 74.764 76.108 73.78 76.108C72.868 76.108 72.004 75.964 71.188 75.676C70.384 75.376 69.736 74.98 69.244 74.488L69.874 73.462C70.294 73.894 70.852 74.248 71.548 74.524C72.244 74.788 72.988 74.92 73.78 74.92C74.812 74.92 75.61 74.698 76.174 74.254C76.738 73.798 77.02 73.174 77.02 72.382C77.02 71.602 76.738 70.99 76.174 70.546C75.61 70.102 74.758 69.88 73.618 69.88H72.718V68.926L76.21 64.552H69.766V63.4H77.866V64.318L74.302 68.8ZM83.3144 68.566C85.1384 68.566 86.4644 68.896 87.2924 69.556C88.1324 70.204 88.5524 71.116 88.5524 72.292C88.5524 73.024 88.3784 73.678 88.0304 74.254C87.6944 74.83 87.1844 75.286 86.5004 75.622C85.8164 75.946 84.9764 76.108 83.9804 76.108C83.0804 76.108 82.2224 75.964 81.4064 75.676C80.6024 75.376 79.9544 74.98 79.4624 74.488L80.0924 73.462C80.5124 73.894 81.0644 74.248 81.7484 74.524C82.4324 74.788 83.1704 74.92 83.9624 74.92C85.0064 74.92 85.8104 74.686 86.3744 74.218C86.9504 73.75 87.2384 73.126 87.2384 72.346C87.2384 71.482 86.9144 70.828 86.2664 70.384C85.6304 69.94 84.5504 69.718 83.0264 69.718H80.3444L80.9924 63.4H87.8864V64.552H82.1264L81.6944 68.566H83.3144ZM95.4177 68.458C96.2457 68.458 96.9777 68.614 97.6137 68.926C98.2617 69.238 98.7657 69.682 99.1257 70.258C99.4857 70.822 99.6657 71.482 99.6657 72.238C99.6657 73.006 99.4797 73.684 99.1077 74.272C98.7357 74.86 98.2197 75.316 97.5597 75.64C96.9117 75.952 96.1797 76.108 95.3637 76.108C93.6957 76.108 92.4177 75.562 91.5297 74.47C90.6417 73.366 90.1977 71.812 90.1977 69.808C90.1977 68.404 90.4377 67.216 90.9177 66.244C91.3977 65.272 92.0697 64.54 92.9337 64.048C93.7977 63.544 94.8057 63.292 95.9577 63.292C97.2057 63.292 98.2017 63.52 98.9457 63.976L98.4237 65.02C97.8237 64.624 97.0077 64.426 95.9757 64.426C94.5837 64.426 93.4917 64.87 92.6997 65.758C91.9077 66.634 91.5117 67.912 91.5117 69.592C91.5117 69.892 91.5297 70.234 91.5657 70.618C91.8777 69.934 92.3757 69.406 93.0597 69.034C93.7437 68.65 94.5297 68.458 95.4177 68.458ZM95.3097 75.01C96.2217 75.01 96.9597 74.764 97.5237 74.272C98.0997 73.768 98.3877 73.102 98.3877 72.274C98.3877 71.446 98.0997 70.786 97.5237 70.294C96.9597 69.802 96.1917 69.556 95.2197 69.556C94.5837 69.556 94.0197 69.676 93.5277 69.916C93.0477 70.156 92.6697 70.486 92.3937 70.906C92.1177 71.326 91.9797 71.794 91.9797 72.31C91.9797 72.79 92.1057 73.234 92.3577 73.642C92.6217 74.05 93.0057 74.38 93.5097 74.632C94.0137 74.884 94.6137 75.01 95.3097 75.01ZM101.398 70.564H106.114V71.68H101.398V70.564ZM115.345 69.394C116.137 69.658 116.743 70.054 117.163 70.582C117.595 71.11 117.811 71.746 117.811 72.49C117.811 73.222 117.613 73.864 117.217 74.416C116.821 74.956 116.251 75.376 115.507 75.676C114.775 75.964 113.911 76.108 112.915 76.108C111.403 76.108 110.215 75.784 109.351 75.136C108.487 74.488 108.055 73.606 108.055 72.49C108.055 71.734 108.259 71.098 108.667 70.582C109.087 70.054 109.693 69.658 110.485 69.394C109.837 69.142 109.345 68.782 109.009 68.314C108.673 67.834 108.505 67.27 108.505 66.622C108.505 65.602 108.901 64.792 109.693 64.192C110.497 63.592 111.571 63.292 112.915 63.292C113.803 63.292 114.577 63.43 115.237 63.706C115.909 63.97 116.431 64.354 116.803 64.858C117.175 65.362 117.361 65.95 117.361 66.622C117.361 67.27 117.187 67.834 116.839 68.314C116.491 68.782 115.993 69.142 115.345 69.394ZM109.801 66.658C109.801 67.354 110.077 67.906 110.629 68.314C111.181 68.722 111.943 68.926 112.915 68.926C113.887 68.926 114.649 68.722 115.201 68.314C115.765 67.906 116.047 67.36 116.047 66.676C116.047 65.968 115.759 65.41 115.183 65.002C114.619 64.594 113.863 64.39 112.915 64.39C111.955 64.39 111.193 64.594 110.629 65.002C110.077 65.41 109.801 65.962 109.801 66.658ZM112.915 75.01C114.031 75.01 114.901 74.782 115.525 74.326C116.161 73.87 116.479 73.252 116.479 72.472C116.479 71.692 116.161 71.08 115.525 70.636C114.901 70.18 114.031 69.952 112.915 69.952C111.811 69.952 110.941 70.18 110.305 70.636C109.681 71.08 109.369 71.692 109.369 72.472C109.369 73.264 109.681 73.888 110.305 74.344C110.929 74.788 111.799 75.01 112.915 75.01ZM124.826 68.458C125.654 68.458 126.386 68.614 127.022 68.926C127.67 69.238 128.174 69.682 128.534 70.258C128.894 70.822 129.074 71.482 129.074 72.238C129.074 73.006 128.888 73.684 128.516 74.272C128.144 74.86 127.628 75.316 126.968 75.64C126.32 75.952 125.588 76.108 124.772 76.108C123.104 76.108 121.826 75.562 120.938 74.47C120.05 73.366 119.606 71.812 119.606 69.808C119.606 68.404 119.846 67.216 120.326 66.244C120.806 65.272 121.478 64.54 122.342 64.048C123.206 63.544 124.214 63.292 125.366 63.292C126.614 63.292 127.61 63.52 128.354 63.976L127.832 65.02C127.232 64.624 126.416 64.426 125.384 64.426C123.992 64.426 122.9 64.87 122.108 65.758C121.316 66.634 120.92 67.912 120.92 69.592C120.92 69.892 120.938 70.234 120.974 70.618C121.286 69.934 121.784 69.406 122.468 69.034C123.152 68.65 123.938 68.458 124.826 68.458ZM124.718 75.01C125.63 75.01 126.368 74.764 126.932 74.272C127.508 73.768 127.796 73.102 127.796 72.274C127.796 71.446 127.508 70.786 126.932 70.294C126.368 69.802 125.6 69.556 124.628 69.556C123.992 69.556 123.428 69.676 122.936 69.916C122.456 70.156 122.078 70.486 121.802 70.906C121.526 71.326 121.388 71.794 121.388 72.31C121.388 72.79 121.514 73.234 121.766 73.642C122.03 74.05 122.414 74.38 122.918 74.632C123.422 74.884 124.022 75.01 124.718 75.01ZM137.793 69.394C138.585 69.658 139.191 70.054 139.611 70.582C140.043 71.11 140.259 71.746 140.259 72.49C140.259 73.222 140.061 73.864 139.665 74.416C139.269 74.956 138.699 75.376 137.955 75.676C137.223 75.964 136.359 76.108 135.363 76.108C133.851 76.108 132.663 75.784 131.799 75.136C130.935 74.488 130.503 73.606 130.503 72.49C130.503 71.734 130.707 71.098 131.115 70.582C131.535 70.054 132.141 69.658 132.933 69.394C132.285 69.142 131.793 68.782 131.457 68.314C131.121 67.834 130.953 67.27 130.953 66.622C130.953 65.602 131.349 64.792 132.141 64.192C132.945 63.592 134.019 63.292 135.363 63.292C136.251 63.292 137.025 63.43 137.685 63.706C138.357 63.97 138.879 64.354 139.251 64.858C139.623 65.362 139.809 65.95 139.809 66.622C139.809 67.27 139.635 67.834 139.287 68.314C138.939 68.782 138.441 69.142 137.793 69.394ZM132.249 66.658C132.249 67.354 132.525 67.906 133.077 68.314C133.629 68.722 134.391 68.926 135.363 68.926C136.335 68.926 137.097 68.722 137.649 68.314C138.213 67.906 138.495 67.36 138.495 66.676C138.495 65.968 138.207 65.41 137.631 65.002C137.067 64.594 136.311 64.39 135.363 64.39C134.403 64.39 133.641 64.594 133.077 65.002C132.525 65.41 132.249 65.962 132.249 66.658ZM135.363 75.01C136.479 75.01 137.349 74.782 137.973 74.326C138.609 73.87 138.927 73.252 138.927 72.472C138.927 71.692 138.609 71.08 137.973 70.636C137.349 70.18 136.479 69.952 135.363 69.952C134.259 69.952 133.389 70.18 132.753 70.636C132.129 71.08 131.817 71.692 131.817 72.472C131.817 73.264 132.129 73.888 132.753 74.344C133.377 74.788 134.247 75.01 135.363 75.01ZM142.197 70.564H146.913V71.68H142.197V70.564ZM157.319 74.848V76H148.481V75.082L153.719 69.952C154.379 69.304 154.823 68.746 155.051 68.278C155.291 67.798 155.411 67.318 155.411 66.838C155.411 66.094 155.153 65.518 154.637 65.11C154.133 64.69 153.407 64.48 152.459 64.48C150.983 64.48 149.837 64.948 149.021 65.884L148.103 65.092C148.595 64.516 149.219 64.072 149.975 63.76C150.743 63.448 151.607 63.292 152.567 63.292C153.851 63.292 154.865 63.598 155.609 64.21C156.365 64.81 156.743 65.638 156.743 66.694C156.743 67.342 156.599 67.966 156.311 68.566C156.023 69.166 155.477 69.856 154.673 70.636L150.389 74.848H157.319ZM169.234 72.688H166.714V76H165.418V72.688H158.308V71.752L164.986 63.4H166.426L159.982 71.536H165.454V68.62H166.714V71.536H169.234V72.688ZM173.666 68.566C175.49 68.566 176.816 68.896 177.644 69.556C178.484 70.204 178.904 71.116 178.904 72.292C178.904 73.024 178.73 73.678 178.382 74.254C178.046 74.83 177.536 75.286 176.852 75.622C176.168 75.946 175.328 76.108 174.332 76.108C173.432 76.108 172.574 75.964 171.758 75.676C170.954 75.376 170.306 74.98 169.814 74.488L170.444 73.462C170.864 73.894 171.416 74.248 172.1 74.524C172.784 74.788 173.522 74.92 174.314 74.92C175.358 74.92 176.162 74.686 176.726 74.218C177.302 73.75 177.59 73.126 177.59 72.346C177.59 71.482 177.266 70.828 176.618 70.384C175.982 69.94 174.902 69.718 173.378 69.718H170.696L171.344 63.4H178.238V64.552H172.478L172.046 68.566H173.666ZM191.259 72.688H188.739V76H187.443V72.688H180.333V71.752L187.011 63.4H188.451L182.007 71.536H187.479V68.62H188.739V71.536H191.259V72.688ZM38.2345 122.46C39.4225 122.46 40.3525 122.802 41.0245 123.486C41.7085 124.17 42.0505 125.178 42.0505 126.51V132H40.7725V126.636C40.7725 125.652 40.5325 124.902 40.0525 124.386C39.5845 123.87 38.9185 123.612 38.0545 123.612C37.0705 123.612 36.2965 123.918 35.7325 124.53C35.1685 125.13 34.8865 125.964 34.8865 127.032V132H33.6085V126.636C33.6085 125.652 33.3685 124.902 32.8885 124.386C32.4205 123.87 31.7485 123.612 30.8725 123.612C29.9005 123.612 29.1265 123.918 28.5505 124.53C27.9865 125.13 27.7045 125.964 27.7045 127.032V132H26.4265V122.532H27.6505V124.26C27.9865 123.684 28.4545 123.24 29.0545 122.928C29.6545 122.616 30.3445 122.46 31.1245 122.46C31.9165 122.46 32.6005 122.628 33.1765 122.964C33.7645 123.3 34.2025 123.798 34.4905 124.458C34.8385 123.834 35.3365 123.348 35.9845 123C36.6445 122.64 37.3945 122.46 38.2345 122.46ZM49.4215 132.09C48.5095 132.09 47.6875 131.886 46.9555 131.478C46.2235 131.058 45.6475 130.482 45.2275 129.75C44.8075 129.018 44.5975 128.19 44.5975 127.266C44.5975 126.342 44.8075 125.514 45.2275 124.782C45.6475 124.05 46.2235 123.48 46.9555 123.072C47.6875 122.664 48.5095 122.46 49.4215 122.46C50.3335 122.46 51.1555 122.664 51.8875 123.072C52.6195 123.48 53.1895 124.05 53.5975 124.782C54.0175 125.514 54.2275 126.342 54.2275 127.266C54.2275 128.19 54.0175 129.018 53.5975 129.75C53.1895 130.482 52.6195 131.058 51.8875 131.478C51.1555 131.886 50.3335 132.09 49.4215 132.09ZM49.4215 130.956C50.0935 130.956 50.6935 130.806 51.2215 130.506C51.7615 130.194 52.1815 129.756 52.4815 129.192C52.7815 128.628 52.9315 127.986 52.9315 127.266C52.9315 126.546 52.7815 125.904 52.4815 125.34C52.1815 124.776 51.7615 124.344 51.2215 124.044C50.6935 123.732 50.0935 123.576 49.4215 123.576C48.7495 123.576 48.1435 123.732 47.6035 124.044C47.0755 124.344 46.6555 124.776 46.3435 125.34C46.0435 125.904 45.8935 126.546 45.8935 127.266C45.8935 127.986 46.0435 128.628 46.3435 129.192C46.6555 129.756 47.0755 130.194 47.6035 130.506C48.1435 130.806 48.7495 130.956 49.4215 130.956ZM61.6607 122.46C62.8487 122.46 63.7907 122.808 64.4867 123.504C65.1947 124.188 65.5487 125.19 65.5487 126.51V132H64.2707V126.636C64.2707 125.652 64.0247 124.902 63.5327 124.386C63.0407 123.87 62.3387 123.612 61.4267 123.612C60.4067 123.612 59.5967 123.918 58.9967 124.53C58.4087 125.13 58.1147 125.964 58.1147 127.032V132H56.8367V122.532H58.0607V124.278C58.4087 123.702 58.8887 123.258 59.5007 122.946C60.1247 122.622 60.8447 122.46 61.6607 122.46ZM74.0043 131.424C73.7643 131.64 73.4643 131.808 73.1043 131.928C72.7563 132.036 72.3903 132.09 72.0063 132.09C71.1183 132.09 70.4343 131.85 69.9543 131.37C69.4743 130.89 69.2343 130.212 69.2343 129.336V123.612H67.5423V122.532H69.2343V120.462H70.5123V122.532H73.3923V123.612H70.5123V129.264C70.5123 129.828 70.6503 130.26 70.9263 130.56C71.2143 130.848 71.6223 130.992 72.1503 130.992C72.4143 130.992 72.6663 130.95 72.9063 130.866C73.1583 130.782 73.3743 130.662 73.5543 130.506L74.0043 131.424ZM76.3308 122.532H77.6088V132H76.3308V122.532ZM76.9788 120.462C76.7148 120.462 76.4928 120.372 76.3128 120.192C76.1328 120.012 76.0428 119.796 76.0428 119.544C76.0428 119.304 76.1328 119.094 76.3128 118.914C76.4928 118.734 76.7148 118.644 76.9788 118.644C77.2428 118.644 77.4648 118.734 77.6448 118.914C77.8248 119.082 77.9148 119.286 77.9148 119.526C77.9148 119.79 77.8248 120.012 77.6448 120.192C77.4648 120.372 77.2428 120.462 76.9788 120.462ZM85.0888 132.09C84.1528 132.09 83.3128 131.886 82.5688 131.478C81.8368 131.07 81.2608 130.5 80.8408 129.768C80.4208 129.024 80.2108 128.19 80.2108 127.266C80.2108 126.342 80.4208 125.514 80.8408 124.782C81.2608 124.05 81.8368 123.48 82.5688 123.072C83.3128 122.664 84.1528 122.46 85.0888 122.46C85.9048 122.46 86.6308 122.622 87.2668 122.946C87.9148 123.258 88.4248 123.72 88.7968 124.332L87.8428 124.98C87.5308 124.512 87.1348 124.164 86.6548 123.936C86.1748 123.696 85.6528 123.576 85.0888 123.576C84.4048 123.576 83.7868 123.732 83.2348 124.044C82.6948 124.344 82.2688 124.776 81.9568 125.34C81.6568 125.904 81.5068 126.546 81.5068 127.266C81.5068 127.998 81.6568 128.646 81.9568 129.21C82.2688 129.762 82.6948 130.194 83.2348 130.506C83.7868 130.806 84.4048 130.956 85.0888 130.956C85.6528 130.956 86.1748 130.842 86.6548 130.614C87.1348 130.386 87.5308 130.038 87.8428 129.57L88.7968 130.218C88.4248 130.83 87.9148 131.298 87.2668 131.622C86.6188 131.934 85.8928 132.09 85.0888 132.09ZM95.9908 122.46C97.1788 122.46 98.1208 122.808 98.8168 123.504C99.5248 124.188 99.8788 125.19 99.8788 126.51V132H98.6008V126.636C98.6008 125.652 98.3548 124.902 97.8628 124.386C97.3708 123.87 96.6688 123.612 95.7568 123.612C94.7368 123.612 93.9268 123.918 93.3268 124.53C92.7388 125.13 92.4448 125.964 92.4448 127.032V132H91.1668V118.644H92.4448V124.188C92.7928 123.636 93.2728 123.21 93.8848 122.91C94.4968 122.61 95.1988 122.46 95.9908 122.46ZM111.628 127.662H103.708C103.78 128.646 104.158 129.444 104.842 130.056C105.526 130.656 106.39 130.956 107.434 130.956C108.022 130.956 108.562 130.854 109.054 130.65C109.546 130.434 109.972 130.122 110.332 129.714L111.052 130.542C110.632 131.046 110.104 131.43 109.468 131.694C108.844 131.958 108.154 132.09 107.398 132.09C106.426 132.09 105.562 131.886 104.806 131.478C104.062 131.058 103.48 130.482 103.06 129.75C102.64 129.018 102.43 128.19 102.43 127.266C102.43 126.342 102.628 125.514 103.024 124.782C103.432 124.05 103.984 123.48 104.68 123.072C105.388 122.664 106.18 122.46 107.056 122.46C107.932 122.46 108.718 122.664 109.414 123.072C110.11 123.48 110.656 124.05 111.052 124.782C111.448 125.502 111.646 126.33 111.646 127.266L111.628 127.662ZM107.056 123.558C106.144 123.558 105.376 123.852 104.752 124.44C104.14 125.016 103.792 125.772 103.708 126.708H110.422C110.338 125.772 109.984 125.016 109.36 124.44C108.748 123.852 107.98 123.558 107.056 123.558ZM114.247 118.644H115.525V132H114.247V118.644ZM119.081 118.644H120.359V132H119.081V118.644ZM127.785 132.09C126.873 132.09 126.051 131.886 125.319 131.478C124.587 131.058 124.011 130.482 123.591 129.75C123.171 129.018 122.961 128.19 122.961 127.266C122.961 126.342 123.171 125.514 123.591 124.782C124.011 124.05 124.587 123.48 125.319 123.072C126.051 122.664 126.873 122.46 127.785 122.46C128.697 122.46 129.519 122.664 130.251 123.072C130.983 123.48 131.553 124.05 131.961 124.782C132.381 125.514 132.591 126.342 132.591 127.266C132.591 128.19 132.381 129.018 131.961 129.75C131.553 130.482 130.983 131.058 130.251 131.478C129.519 131.886 128.697 132.09 127.785 132.09ZM127.785 130.956C128.457 130.956 129.057 130.806 129.585 130.506C130.125 130.194 130.545 129.756 130.845 129.192C131.145 128.628 131.295 127.986 131.295 127.266C131.295 126.546 131.145 125.904 130.845 125.34C130.545 124.776 130.125 124.344 129.585 124.044C129.057 123.732 128.457 123.576 127.785 123.576C127.113 123.576 126.507 123.732 125.967 124.044C125.439 124.344 125.019 124.776 124.707 125.34C124.407 125.904 124.257 126.546 124.257 127.266C124.257 127.986 124.407 128.628 124.707 129.192C125.019 129.756 125.439 130.194 125.967 130.506C126.507 130.806 127.113 130.956 127.785 130.956ZM142.76 119.292C144.368 119.292 145.802 119.628 147.062 120.3C148.334 120.96 149.324 121.896 150.032 123.108C150.74 124.308 151.094 125.682 151.094 127.23C151.094 128.754 150.83 129.948 150.302 130.812C149.774 131.664 149.042 132.09 148.106 132.09C147.518 132.09 147.038 131.916 146.666 131.568C146.306 131.22 146.108 130.74 146.072 130.128C145.712 130.752 145.22 131.238 144.596 131.586C143.972 131.922 143.264 132.09 142.472 132.09C141.632 132.09 140.87 131.892 140.186 131.496C139.514 131.088 138.98 130.53 138.584 129.822C138.2 129.114 138.008 128.316 138.008 127.428C138.008 126.54 138.2 125.748 138.584 125.052C138.98 124.344 139.514 123.792 140.186 123.396C140.87 123 141.632 122.802 142.472 122.802C143.24 122.802 143.93 122.97 144.542 123.306C145.166 123.63 145.664 124.092 146.036 124.692V122.874H147.206V129.696C147.206 130.176 147.308 130.524 147.512 130.74C147.716 130.956 147.986 131.064 148.322 131.064C148.886 131.064 149.33 130.728 149.654 130.056C149.99 129.384 150.158 128.448 150.158 127.248C150.158 125.856 149.846 124.632 149.222 123.576C148.598 122.508 147.722 121.68 146.594 121.092C145.478 120.504 144.2 120.21 142.76 120.21C141.308 120.21 140.018 120.516 138.89 121.128C137.774 121.728 136.904 122.58 136.28 123.684C135.656 124.776 135.344 126.024 135.344 127.428C135.344 128.832 135.65 130.086 136.262 131.19C136.886 132.294 137.75 133.152 138.854 133.764C139.97 134.376 141.248 134.682 142.688 134.682C143.252 134.682 143.84 134.616 144.452 134.484C145.076 134.352 145.64 134.154 146.144 133.89L146.45 134.772C145.934 135.036 145.334 135.24 144.65 135.384C143.978 135.528 143.324 135.6 142.688 135.6C141.056 135.6 139.61 135.252 138.35 134.556C137.09 133.86 136.106 132.894 135.398 131.658C134.702 130.41 134.354 129 134.354 127.428C134.354 125.844 134.708 124.44 135.416 123.216C136.124 121.98 137.114 121.02 138.386 120.336C139.67 119.64 141.128 119.292 142.76 119.292ZM142.634 131.046C143.282 131.046 143.864 130.896 144.38 130.596C144.896 130.296 145.304 129.876 145.604 129.336C145.904 128.784 146.054 128.148 146.054 127.428C146.054 126.72 145.904 126.096 145.604 125.556C145.304 125.004 144.896 124.584 144.38 124.296C143.864 123.996 143.282 123.846 142.634 123.846C141.974 123.846 141.38 123.996 140.852 124.296C140.336 124.596 139.928 125.016 139.628 125.556C139.34 126.096 139.196 126.72 139.196 127.428C139.196 128.136 139.34 128.766 139.628 129.318C139.928 129.858 140.336 130.284 140.852 130.596C141.38 130.896 141.974 131.046 142.634 131.046ZM156.336 132.09C155.568 132.09 154.83 131.982 154.122 131.766C153.426 131.538 152.88 131.256 152.484 130.92L153.06 129.912C153.456 130.224 153.954 130.482 154.554 130.686C155.154 130.878 155.778 130.974 156.426 130.974C157.29 130.974 157.926 130.842 158.334 130.578C158.754 130.302 158.964 129.918 158.964 129.426C158.964 129.078 158.85 128.808 158.622 128.616C158.394 128.412 158.106 128.262 157.758 128.166C157.41 128.058 156.948 127.956 156.372 127.86C155.604 127.716 154.986 127.572 154.518 127.428C154.05 127.272 153.648 127.014 153.312 126.654C152.988 126.294 152.826 125.796 152.826 125.16C152.826 124.368 153.156 123.72 153.816 123.216C154.476 122.712 155.394 122.46 156.57 122.46C157.182 122.46 157.794 122.544 158.406 122.712C159.018 122.868 159.522 123.078 159.918 123.342L159.36 124.368C158.58 123.828 157.65 123.558 156.57 123.558C155.754 123.558 155.136 123.702 154.716 123.99C154.308 124.278 154.104 124.656 154.104 125.124C154.104 125.484 154.218 125.772 154.446 125.988C154.686 126.204 154.98 126.366 155.328 126.474C155.676 126.57 156.156 126.672 156.768 126.78C157.524 126.924 158.13 127.068 158.586 127.212C159.042 127.356 159.432 127.602 159.756 127.95C160.08 128.298 160.242 128.778 160.242 129.39C160.242 130.218 159.894 130.878 159.198 131.37C158.514 131.85 157.56 132.09 156.336 132.09ZM170.848 127.662H162.928C163 128.646 163.378 129.444 164.062 130.056C164.746 130.656 165.61 130.956 166.654 130.956C167.242 130.956 167.782 130.854 168.274 130.65C168.766 130.434 169.192 130.122 169.552 129.714L170.272 130.542C169.852 131.046 169.324 131.43 168.688 131.694C168.064 131.958 167.374 132.09 166.618 132.09C165.646 132.09 164.782 131.886 164.026 131.478C163.282 131.058 162.7 130.482 162.28 129.75C161.86 129.018 161.65 128.19 161.65 127.266C161.65 126.342 161.848 125.514 162.244 124.782C162.652 124.05 163.204 123.48 163.9 123.072C164.608 122.664 165.4 122.46 166.276 122.46C167.152 122.46 167.938 122.664 168.634 123.072C169.33 123.48 169.876 124.05 170.272 124.782C170.668 125.502 170.866 126.33 170.866 127.266L170.848 127.662ZM166.276 123.558C165.364 123.558 164.596 123.852 163.972 124.44C163.36 125.016 163.012 125.772 162.928 126.708H169.642C169.558 125.772 169.204 125.016 168.58 124.44C167.968 123.852 167.2 123.558 166.276 123.558ZM174.692 124.386C174.992 123.75 175.436 123.27 176.024 122.946C176.624 122.622 177.362 122.46 178.238 122.46V123.702L177.932 123.684C176.936 123.684 176.156 123.99 175.592 124.602C175.028 125.214 174.746 126.072 174.746 127.176V132H173.468V122.532H174.692V124.386ZM188.912 122.532L184.7 132H183.386L179.192 122.532H180.524L184.07 130.596L187.652 122.532H188.912ZM190.712 122.532H191.99V132H190.712V122.532ZM191.36 120.462C191.096 120.462 190.874 120.372 190.694 120.192C190.514 120.012 190.424 119.796 190.424 119.544C190.424 119.304 190.514 119.094 190.694 118.914C190.874 118.734 191.096 118.644 191.36 118.644C191.624 118.644 191.846 118.734 192.026 118.914C192.206 119.082 192.296 119.286 192.296 119.526C192.296 119.79 192.206 120.012 192.026 120.192C191.846 120.372 191.624 120.462 191.36 120.462ZM199.47 132.09C198.534 132.09 197.694 131.886 196.95 131.478C196.218 131.07 195.642 130.5 195.222 129.768C194.802 129.024 194.592 128.19 194.592 127.266C194.592 126.342 194.802 125.514 195.222 124.782C195.642 124.05 196.218 123.48 196.95 123.072C197.694 122.664 198.534 122.46 199.47 122.46C200.286 122.46 201.012 122.622 201.648 122.946C202.296 123.258 202.806 123.72 203.178 124.332L202.224 124.98C201.912 124.512 201.516 124.164 201.036 123.936C200.556 123.696 200.034 123.576 199.47 123.576C198.786 123.576 198.168 123.732 197.616 124.044C197.076 124.344 196.65 124.776 196.338 125.34C196.038 125.904 195.888 126.546 195.888 127.266C195.888 127.998 196.038 128.646 196.338 129.21C196.65 129.762 197.076 130.194 197.616 130.506C198.168 130.806 198.786 130.956 199.47 130.956C200.034 130.956 200.556 130.842 201.036 130.614C201.516 130.386 201.912 130.038 202.224 129.57L203.178 130.218C202.806 130.83 202.296 131.298 201.648 131.622C201 131.934 200.274 132.09 199.47 132.09ZM213.774 127.662H205.854C205.926 128.646 206.304 129.444 206.988 130.056C207.672 130.656 208.536 130.956 209.58 130.956C210.168 130.956 210.708 130.854 211.2 130.65C211.692 130.434 212.118 130.122 212.478 129.714L213.198 130.542C212.778 131.046 212.25 131.43 211.614 131.694C210.99 131.958 210.3 132.09 209.544 132.09C208.572 132.09 207.708 131.886 206.952 131.478C206.208 131.058 205.626 130.482 205.206 129.75C204.786 129.018 204.576 128.19 204.576 127.266C204.576 126.342 204.774 125.514 205.17 124.782C205.578 124.05 206.13 123.48 206.826 123.072C207.534 122.664 208.326 122.46 209.202 122.46C210.078 122.46 210.864 122.664 211.56 123.072C212.256 123.48 212.802 124.05 213.198 124.782C213.594 125.502 213.792 126.33 213.792 127.266L213.774 127.662ZM209.202 123.558C208.29 123.558 207.522 123.852 206.898 124.44C206.286 125.016 205.938 125.772 205.854 126.708H212.568C212.484 125.772 212.13 125.016 211.506 124.44C210.894 123.852 210.126 123.558 209.202 123.558ZM216.519 132.09C216.255 132.09 216.027 131.994 215.835 131.802C215.655 131.61 215.565 131.376 215.565 131.1C215.565 130.824 215.655 130.596 215.835 130.416C216.027 130.224 216.255 130.128 216.519 130.128C216.783 130.128 217.011 130.224 217.203 130.416C217.395 130.596 217.491 130.824 217.491 131.1C217.491 131.376 217.395 131.61 217.203 131.802C217.011 131.994 216.783 132.09 216.519 132.09ZM223.868 132.09C222.932 132.09 222.092 131.886 221.348 131.478C220.616 131.07 220.04 130.5 219.62 129.768C219.2 129.024 218.99 128.19 218.99 127.266C218.99 126.342 219.2 125.514 219.62 124.782C220.04 124.05 220.616 123.48 221.348 123.072C222.092 122.664 222.932 122.46 223.868 122.46C224.684 122.46 225.41 122.622 226.046 122.946C226.694 123.258 227.204 123.72 227.576 124.332L226.622 124.98C226.31 124.512 225.914 124.164 225.434 123.936C224.954 123.696 224.432 123.576 223.868 123.576C223.184 123.576 222.566 123.732 222.014 124.044C221.474 124.344 221.048 124.776 220.736 125.34C220.436 125.904 220.286 126.546 220.286 127.266C220.286 127.998 220.436 128.646 220.736 129.21C221.048 129.762 221.474 130.194 222.014 130.506C222.566 130.806 223.184 130.956 223.868 130.956C224.432 130.956 224.954 130.842 225.434 130.614C225.914 130.386 226.31 130.038 226.622 129.57L227.576 130.218C227.204 130.83 226.694 131.298 226.046 131.622C225.398 131.934 224.672 132.09 223.868 132.09ZM233.798 132.09C232.886 132.09 232.064 131.886 231.332 131.478C230.6 131.058 230.024 130.482 229.604 129.75C229.184 129.018 228.974 128.19 228.974 127.266C228.974 126.342 229.184 125.514 229.604 124.782C230.024 124.05 230.6 123.48 231.332 123.072C232.064 122.664 232.886 122.46 233.798 122.46C234.71 122.46 235.532 122.664 236.264 123.072C236.996 123.48 237.566 124.05 237.974 124.782C238.394 125.514 238.604 126.342 238.604 127.266C238.604 128.19 238.394 129.018 237.974 129.75C237.566 130.482 236.996 131.058 236.264 131.478C235.532 131.886 234.71 132.09 233.798 132.09ZM233.798 130.956C234.47 130.956 235.07 130.806 235.598 130.506C236.138 130.194 236.558 129.756 236.858 129.192C237.158 128.628 237.308 127.986 237.308 127.266C237.308 126.546 237.158 125.904 236.858 125.34C236.558 124.776 236.138 124.344 235.598 124.044C235.07 123.732 234.47 123.576 233.798 123.576C233.126 123.576 232.52 123.732 231.98 124.044C231.452 124.344 231.032 124.776 230.72 125.34C230.42 125.904 230.27 126.546 230.27 127.266C230.27 127.986 230.42 128.628 230.72 129.192C231.032 129.756 231.452 130.194 231.98 130.506C232.52 130.806 233.126 130.956 233.798 130.956ZM253.022 122.46C254.21 122.46 255.14 122.802 255.812 123.486C256.496 124.17 256.838 125.178 256.838 126.51V132H255.56V126.636C255.56 125.652 255.32 124.902 254.84 124.386C254.372 123.87 253.706 123.612 252.842 123.612C251.858 123.612 251.084 123.918 250.52 124.53C249.956 125.13 249.674 125.964 249.674 127.032V132H248.396V126.636C248.396 125.652 248.156 124.902 247.676 124.386C247.208 123.87 246.536 123.612 245.66 123.612C244.688 123.612 243.914 123.918 243.338 124.53C242.774 125.13 242.492 125.964 242.492 127.032V132H241.214V122.532H242.438V124.26C242.774 123.684 243.242 123.24 243.842 122.928C244.442 122.616 245.132 122.46 245.912 122.46C246.704 122.46 247.388 122.628 247.964 122.964C248.552 123.3 248.99 123.798 249.278 124.458C249.626 123.834 250.124 123.348 250.772 123C251.432 122.64 252.182 122.46 253.022 122.46ZM28.2395 176.552V181.502H34.7555V182.654H28.2395V188H26.9075V175.4H35.5475V176.552H28.2395ZM39.0763 180.386C39.3763 179.75 39.8203 179.27 40.4083 178.946C41.0083 178.622 41.7463 178.46 42.6223 178.46V179.702L42.3163 179.684C41.3203 179.684 40.5403 179.99 39.9763 180.602C39.4123 181.214 39.1303 182.072 39.1303 183.176V188H37.8523V178.532H39.0763V180.386ZM48.7184 188.09C47.8064 188.09 46.9844 187.886 46.2524 187.478C45.5204 187.058 44.9444 186.482 44.5244 185.75C44.1044 185.018 43.8944 184.19 43.8944 183.266C43.8944 182.342 44.1044 181.514 44.5244 180.782C44.9444 180.05 45.5204 179.48 46.2524 179.072C46.9844 178.664 47.8064 178.46 48.7184 178.46C49.6304 178.46 50.4524 178.664 51.1844 179.072C51.9164 179.48 52.4864 180.05 52.8944 180.782C53.3144 181.514 53.5244 182.342 53.5244 183.266C53.5244 184.19 53.3144 185.018 52.8944 185.75C52.4864 186.482 51.9164 187.058 51.1844 187.478C50.4524 187.886 49.6304 188.09 48.7184 188.09ZM48.7184 186.956C49.3904 186.956 49.9904 186.806 50.5184 186.506C51.0584 186.194 51.4784 185.756 51.7784 185.192C52.0784 184.628 52.2284 183.986 52.2284 183.266C52.2284 182.546 52.0784 181.904 51.7784 181.34C51.4784 180.776 51.0584 180.344 50.5184 180.044C49.9904 179.732 49.3904 179.576 48.7184 179.576C48.0464 179.576 47.4404 179.732 46.9004 180.044C46.3724 180.344 45.9524 180.776 45.6404 181.34C45.3404 181.904 45.1904 182.546 45.1904 183.266C45.1904 183.986 45.3404 184.628 45.6404 185.192C45.9524 185.756 46.3724 186.194 46.9004 186.506C47.4404 186.806 48.0464 186.956 48.7184 186.956ZM67.9416 178.46C69.1296 178.46 70.0596 178.802 70.7316 179.486C71.4156 180.17 71.7576 181.178 71.7576 182.51V188H70.4796V182.636C70.4796 181.652 70.2396 180.902 69.7596 180.386C69.2916 179.87 68.6256 179.612 67.7616 179.612C66.7776 179.612 66.0036 179.918 65.4396 180.53C64.8756 181.13 64.5936 181.964 64.5936 183.032V188H63.3156V182.636C63.3156 181.652 63.0756 180.902 62.5956 180.386C62.1276 179.87 61.4556 179.612 60.5796 179.612C59.6076 179.612 58.8336 179.918 58.2576 180.53C57.6936 181.13 57.4116 181.964 57.4116 183.032V188H56.1336V178.532H57.3576V180.26C57.6936 179.684 58.1616 179.24 58.7616 178.928C59.3616 178.616 60.0516 178.46 60.8316 178.46C61.6236 178.46 62.3076 178.628 62.8836 178.964C63.4716 179.3 63.9096 179.798 64.1976 180.458C64.5456 179.834 65.0436 179.348 65.6916 179C66.3516 178.64 67.1016 178.46 67.9416 178.46ZM84.1103 188.108C83.1383 188.108 82.2683 187.85 81.5003 187.334C80.7443 186.818 80.1503 186.08 79.7183 185.12C79.2983 184.148 79.0883 183.008 79.0883 181.7C79.0883 180.392 79.2983 179.258 79.7183 178.298C80.1503 177.326 80.7443 176.582 81.5003 176.066C82.2683 175.55 83.1383 175.292 84.1103 175.292C85.0823 175.292 85.9463 175.55 86.7023 176.066C87.4703 176.582 88.0703 177.326 88.5023 178.298C88.9343 179.258 89.1503 180.392 89.1503 181.7C89.1503 183.008 88.9343 184.148 88.5023 185.12C88.0703 186.08 87.4703 186.818 86.7023 187.334C85.9463 187.85 85.0823 188.108 84.1103 188.108ZM84.1103 186.92C84.8423 186.92 85.4843 186.716 86.0363 186.308C86.6003 185.9 87.0383 185.306 87.3503 184.526C87.6623 183.746 87.8183 182.804 87.8183 181.7C87.8183 180.596 87.6623 179.654 87.3503 178.874C87.0383 178.094 86.6003 177.5 86.0363 177.092C85.4843 176.684 84.8423 176.48 84.1103 176.48C83.3783 176.48 82.7303 176.684 82.1663 177.092C81.6143 177.5 81.1823 178.094 80.8703 178.874C80.5583 179.654 80.4023 180.596 80.4023 181.7C80.4023 182.804 80.5583 183.746 80.8703 184.526C81.1823 185.306 81.6143 185.9 82.1663 186.308C82.7303 186.716 83.3783 186.92 84.1103 186.92ZM99.7577 175.4V176.318L94.4837 188H93.0797L98.2637 176.552H91.7837V178.91H90.5057V175.4H99.7577ZM102.086 180.422C101.822 180.422 101.594 180.326 101.402 180.134C101.222 179.942 101.132 179.708 101.132 179.432C101.132 179.156 101.222 178.928 101.402 178.748C101.594 178.556 101.822 178.46 102.086 178.46C102.35 178.46 102.578 178.556 102.77 178.748C102.962 178.928 103.058 179.156 103.058 179.432C103.058 179.708 102.962 179.942 102.77 180.134C102.578 180.326 102.35 180.422 102.086 180.422ZM102.086 188.09C101.822 188.09 101.594 187.994 101.402 187.802C101.222 187.61 101.132 187.376 101.132 187.1C101.132 186.824 101.222 186.596 101.402 186.416C101.594 186.224 101.822 186.128 102.086 186.128C102.35 186.128 102.578 186.224 102.77 186.416C102.962 186.596 103.058 186.824 103.058 187.1C103.058 187.376 102.962 187.61 102.77 187.802C102.578 187.994 102.35 188.09 102.086 188.09ZM109.95 188.108C108.978 188.108 108.108 187.85 107.34 187.334C106.584 186.818 105.99 186.08 105.558 185.12C105.138 184.148 104.928 183.008 104.928 181.7C104.928 180.392 105.138 179.258 105.558 178.298C105.99 177.326 106.584 176.582 107.34 176.066C108.108 175.55 108.978 175.292 109.95 175.292C110.922 175.292 111.786 175.55 112.542 176.066C113.31 176.582 113.91 177.326 114.342 178.298C114.774 179.258 114.99 180.392 114.99 181.7C114.99 183.008 114.774 184.148 114.342 185.12C113.91 186.08 113.31 186.818 112.542 187.334C111.786 187.85 110.922 188.108 109.95 188.108ZM109.95 186.92C110.682 186.92 111.324 186.716 111.876 186.308C112.44 185.9 112.878 185.306 113.19 184.526C113.502 183.746 113.658 182.804 113.658 181.7C113.658 180.596 113.502 179.654 113.19 178.874C112.878 178.094 112.44 177.5 111.876 177.092C111.324 176.684 110.682 176.48 109.95 176.48C109.218 176.48 108.57 176.684 108.006 177.092C107.454 177.5 107.022 178.094 106.71 178.874C106.398 179.654 106.242 180.596 106.242 181.7C106.242 182.804 106.398 183.746 106.71 184.526C107.022 185.306 107.454 185.9 108.006 186.308C108.57 186.716 109.218 186.92 109.95 186.92ZM120.158 180.566C121.982 180.566 123.308 180.896 124.136 181.556C124.976 182.204 125.396 183.116 125.396 184.292C125.396 185.024 125.222 185.678 124.874 186.254C124.538 186.83 124.028 187.286 123.344 187.622C122.66 187.946 121.82 188.108 120.824 188.108C119.924 188.108 119.066 187.964 118.25 187.676C117.446 187.376 116.798 186.98 116.306 186.488L116.936 185.462C117.356 185.894 117.908 186.248 118.592 186.524C119.276 186.788 120.014 186.92 120.806 186.92C121.85 186.92 122.654 186.686 123.218 186.218C123.794 185.75 124.082 185.126 124.082 184.346C124.082 183.482 123.758 182.828 123.11 182.384C122.474 181.94 121.394 181.718 119.87 181.718H117.188L117.836 175.4H124.73V176.552H118.97L118.538 180.566H120.158ZM136.059 184.634H129.039L127.527 188H126.141L131.901 175.4H133.215L138.975 188H137.571L136.059 184.634ZM135.573 183.554L132.549 176.786L129.525 183.554H135.573ZM154.146 175.4V188H152.868V177.92L147.918 186.398H147.288L142.338 177.974V188H141.06V175.4H142.158L147.63 184.742L153.048 175.4H154.146ZM167.678 187.424C167.438 187.64 167.138 187.808 166.778 187.928C166.43 188.036 166.064 188.09 165.68 188.09C164.792 188.09 164.108 187.85 163.628 187.37C163.148 186.89 162.908 186.212 162.908 185.336V179.612H161.216V178.532H162.908V176.462H164.186V178.532H167.066V179.612H164.186V185.264C164.186 185.828 164.324 186.26 164.6 186.56C164.888 186.848 165.296 186.992 165.824 186.992C166.088 186.992 166.34 186.95 166.58 186.866C166.832 186.782 167.048 186.662 167.228 186.506L167.678 187.424ZM173.541 188.09C172.629 188.09 171.807 187.886 171.075 187.478C170.343 187.058 169.767 186.482 169.347 185.75C168.927 185.018 168.717 184.19 168.717 183.266C168.717 182.342 168.927 181.514 169.347 180.782C169.767 180.05 170.343 179.48 171.075 179.072C171.807 178.664 172.629 178.46 173.541 178.46C174.453 178.46 175.275 178.664 176.007 179.072C176.739 179.48 177.309 180.05 177.717 180.782C178.137 181.514 178.347 182.342 178.347 183.266C178.347 184.19 178.137 185.018 177.717 185.75C177.309 186.482 176.739 187.058 176.007 187.478C175.275 187.886 174.453 188.09 173.541 188.09ZM173.541 186.956C174.213 186.956 174.813 186.806 175.341 186.506C175.881 186.194 176.301 185.756 176.601 185.192C176.901 184.628 177.051 183.986 177.051 183.266C177.051 182.546 176.901 181.904 176.601 181.34C176.301 180.776 175.881 180.344 175.341 180.044C174.813 179.732 174.213 179.576 173.541 179.576C172.869 179.576 172.263 179.732 171.723 180.044C171.195 180.344 170.775 180.776 170.463 181.34C170.163 181.904 170.013 182.546 170.013 183.266C170.013 183.986 170.163 184.628 170.463 185.192C170.775 185.756 171.195 186.194 171.723 186.506C172.263 186.806 172.869 186.956 173.541 186.956ZM188.313 175.4V188H187.017V176.552H184.047V175.4H188.313ZM195.249 175.292C196.917 175.292 198.195 175.844 199.083 176.948C199.971 178.04 200.415 179.588 200.415 181.592C200.415 182.996 200.175 184.184 199.695 185.156C199.215 186.128 198.543 186.866 197.679 187.37C196.815 187.862 195.807 188.108 194.655 188.108C193.407 188.108 192.411 187.88 191.667 187.424L192.189 186.38C192.789 186.776 193.605 186.974 194.637 186.974C196.029 186.974 197.121 186.536 197.913 185.66C198.705 184.772 199.101 183.488 199.101 181.808C199.101 181.496 199.083 181.154 199.047 180.782C198.735 181.466 198.237 182 197.553 182.384C196.869 182.756 196.083 182.942 195.195 182.942C194.367 182.942 193.629 182.786 192.981 182.474C192.345 182.162 191.847 181.724 191.487 181.16C191.127 180.584 190.947 179.918 190.947 179.162C190.947 178.394 191.133 177.716 191.505 177.128C191.877 176.54 192.387 176.09 193.035 175.778C193.695 175.454 194.433 175.292 195.249 175.292ZM195.393 181.844C196.029 181.844 196.587 181.724 197.067 181.484C197.559 181.244 197.943 180.914 198.219 180.494C198.495 180.074 198.633 179.606 198.633 179.09C198.633 178.61 198.501 178.166 198.237 177.758C197.985 177.35 197.607 177.02 197.103 176.768C196.599 176.516 195.999 176.39 195.303 176.39C194.391 176.39 193.647 176.642 193.071 177.146C192.507 177.638 192.225 178.298 192.225 179.126C192.225 179.954 192.507 180.614 193.071 181.106C193.647 181.598 194.421 181.844 195.393 181.844ZM203.265 180.422C203.001 180.422 202.773 180.326 202.581 180.134C202.401 179.942 202.311 179.708 202.311 179.432C202.311 179.156 202.401 178.928 202.581 178.748C202.773 178.556 203.001 178.46 203.265 178.46C203.529 178.46 203.757 178.556 203.949 178.748C204.141 178.928 204.237 179.156 204.237 179.432C204.237 179.708 204.141 179.942 203.949 180.134C203.757 180.326 203.529 180.422 203.265 180.422ZM203.265 188.09C203.001 188.09 202.773 187.994 202.581 187.802C202.401 187.61 202.311 187.376 202.311 187.1C202.311 186.824 202.401 186.596 202.581 186.416C202.773 186.224 203.001 186.128 203.265 186.128C203.529 186.128 203.757 186.224 203.949 186.416C204.141 186.596 204.237 186.824 204.237 187.1C204.237 187.376 204.141 187.61 203.949 187.802C203.757 187.994 203.529 188.09 203.265 188.09ZM210.392 180.8C211.712 180.872 212.714 181.232 213.398 181.88C214.094 182.516 214.442 183.35 214.442 184.382C214.442 185.102 214.268 185.744 213.92 186.308C213.572 186.86 213.056 187.298 212.372 187.622C211.688 187.946 210.854 188.108 209.87 188.108C208.958 188.108 208.094 187.964 207.278 187.676C206.474 187.376 205.826 186.98 205.334 186.488L205.964 185.462C206.384 185.894 206.942 186.248 207.638 186.524C208.334 186.788 209.078 186.92 209.87 186.92C210.902 186.92 211.7 186.698 212.264 186.254C212.828 185.798 213.11 185.174 213.11 184.382C213.11 183.602 212.828 182.99 212.264 182.546C211.7 182.102 210.848 181.88 209.708 181.88H208.808V180.926L212.3 176.552H205.856V175.4H213.956V176.318L210.392 180.8ZM221.29 188.108C220.318 188.108 219.448 187.85 218.68 187.334C217.924 186.818 217.33 186.08 216.898 185.12C216.478 184.148 216.268 183.008 216.268 181.7C216.268 180.392 216.478 179.258 216.898 178.298C217.33 177.326 217.924 176.582 218.68 176.066C219.448 175.55 220.318 175.292 221.29 175.292C222.262 175.292 223.126 175.55 223.882 176.066C224.65 176.582 225.25 177.326 225.682 178.298C226.114 179.258 226.33 180.392 226.33 181.7C226.33 183.008 226.114 184.148 225.682 185.12C225.25 186.08 224.65 186.818 223.882 187.334C223.126 187.85 222.262 188.108 221.29 188.108ZM221.29 186.92C222.022 186.92 222.664 186.716 223.216 186.308C223.78 185.9 224.218 185.306 224.53 184.526C224.842 183.746 224.998 182.804 224.998 181.7C224.998 180.596 224.842 179.654 224.53 178.874C224.218 178.094 223.78 177.5 223.216 177.092C222.664 176.684 222.022 176.48 221.29 176.48C220.558 176.48 219.91 176.684 219.346 177.092C218.794 177.5 218.362 178.094 218.05 178.874C217.738 179.654 217.582 180.596 217.582 181.7C217.582 182.804 217.738 183.746 218.05 184.526C218.362 185.306 218.794 185.9 219.346 186.308C219.91 186.716 220.558 186.92 221.29 186.92ZM234.018 175.4C235.626 175.4 236.886 175.784 237.798 176.552C238.71 177.32 239.166 178.376 239.166 179.72C239.166 181.064 238.71 182.12 237.798 182.888C236.886 183.644 235.626 184.022 234.018 184.022H230.634V188H229.302V175.4H234.018ZM233.982 182.852C235.23 182.852 236.184 182.582 236.844 182.042C237.504 181.49 237.834 180.716 237.834 179.72C237.834 178.7 237.504 177.92 236.844 177.38C236.184 176.828 235.23 176.552 233.982 176.552H230.634V182.852H233.982ZM255.132 175.4V188H253.854V177.92L248.904 186.398H248.274L243.324 177.974V188H242.046V175.4H243.144L248.616 184.742L254.034 175.4H255.132Z" fill="black"/>
</svg>
